# xmcd CD database file
#
# Track frame offsets:
#	225
#	24561
#	62237
#	91636
#	129155
#	164400
#	203792
#	231697
#	264612
#	290032
#
# Disc length: 4421 seconds
#
# Revision: 0
# Processed by: cddbd v1.5.2PL0 Copyright (c) Steve Scherf et al.
# Submitted via: CDex 1.70beta2
#
DISCID=9111420a
DTITLE=Khan Jamal - Percussion and Strings
DYEAR=1997
DGENRE=Jazz
TTITLE0=Professor Bill (Lewis)
TTITLE1=Whisper Sweet
TTITLE2=Sphere
TTITLE3=Blue Monk
TTITLE4=Six and Seven Equals Thirteen
TTITLE5=Another Kind Of Blue
TTITLE6=Witch Doctor's Son
TTITLE7=Return From Exile
TTITLE8=Four On Three
TTITLE9='Round About Midnight
EXTD=YEAR: 1997
EXTT0=
EXTT1=
EXTT2=
EXTT3=
EXTT4=
EXTT5=
EXTT6=
EXTT7=
EXTT8=
EXTT9=
PLAYORDER=
